<svg xmlns="http://www.w3.org/2000/svg" width="9" height="16" viewBox="0 0 9 16"><g><g><path fill="#f17d91" d="M8.56 9.05a1.48 1.48 0 0 0 .443-1.06c0-.4-.158-.776-.442-1.059L1.74.291a1.015 1.015 0 0 0-1.426 0 .993.993 0 0 0 0 1.412L6.779 7.99.315 14.278a.992.992 0 0 0 0 1.412c.394.39 1.032.39 1.426 0l6.82-6.64z"/><path fill="#f17d91" d="M8.56 9.05a1.48 1.48 0 0 0 .443-1.06c0-.4-.158-.776-.442-1.059L1.74.291a1.015 1.015 0 0 0-1.426 0 .993.993 0 0 0 0 1.412L6.779 7.99.315 14.278a.992.992 0 0 0 0 1.412c.394.39 1.032.39 1.426 0l6.82-6.64z"/></g></g></svg>